<?xml version="1.0" encoding="utf-8"?>
<!-- Generator: Adobe Illustrator 21.0.2, SVG Export Plug-In . SVG Version: 6.00 Build 0)  -->
<svg version="1.1" id="Слой_1" xmlns="http://www.w3.org/2000/svg" xmlns:xlink="http://www.w3.org/1999/xlink" x="0px" y="0px"
	 viewBox="0 0 198.9 151" style="enable-background:new 0 0 198.9 151;" xml:space="preserve">
<style type="text/css">
	.st0{fill:#FFFFFF;}
</style>
<path class="st0" d="M110.4,44.3c0,0.2,0,0.4,0,0.6L81.9,86.3c-4.6-0.2-9.3,0.6-13.6,2.4c-1.9,0.8-3.8,1.8-5.5,2.9L0.2,65.8
	c0,0-1.4,23.8,4.6,41.6L49,125.7c2.2,9.9,9,18.6,19.1,22.8c16.4,6.9,35.4-1,42.2-17.4c1.8-4.3,2.6-8.8,2.5-13.3l40.8-29.1
	c0.3,0,0.7,0,1,0c24.4,0,44.3-19.9,44.3-44.3C198.9,19.9,179,0,154.6,0C130.2,0,110.4,19.9,110.4,44.3z M103.5,128.2
	c-5.3,12.7-19.9,18.7-32.6,13.4c-5.9-2.4-10.3-6.9-12.8-12.2l14.4,6c9.4,3.9,20.1-0.5,24-9.9c3.9-9.4-0.5-20.1-9.9-24l-14.9-6.2
	c5.7-2.2,12.3-2.3,18.4,0.3c6.2,2.6,10.9,7.4,13.5,13.5S106.1,122.1,103.5,128.2 M154.6,73.9c-16.3,0-29.5-13.3-29.5-29.5
	c0-16.3,13.2-29.5,29.5-29.5c16.3,0,29.5,13.3,29.5,29.5C184.1,60.6,170.9,73.9,154.6,73.9 M132.5,44.3c0-12.3,9.9-22.2,22.1-22.2
	c12.2,0,22.1,9.9,22.1,22.2c0,12.3-9.9,22.2-22.1,22.2C142.4,66.5,132.5,56.5,132.5,44.3z"/>
</svg>
