<svg width="44" height="44" viewBox="0 0 44 44" fill="none" xmlns="http://www.w3.org/2000/svg">
<g clip-path="url(#clip0)">
<path d="M22.7735 3.87957L24.6025 2.55944H22.3376L21.6372 0.428711L20.9445 2.55944H18.6796L20.5086 3.87957L19.8081 6.01803L21.6372 4.6979L23.474 6.01803L22.7735 3.87957Z" fill="#FFCC00"/>
<path d="M32.1132 6.36541L33.9422 5.04528H31.6773L30.9769 2.91455L30.2842 5.04528H28.0193L29.8483 6.36541L29.1478 8.49615L30.9769 7.17602L32.8137 8.49615L32.1132 6.36541Z" fill="#FFCC00"/>
<path d="M38.9469 13.1437L40.7759 11.8236H38.5188L37.8183 9.69287L37.1179 11.8236H34.853L36.6898 13.1437L35.9893 15.2822L37.8183 13.9621L39.6474 15.2822L38.9469 13.1437Z" fill="#FFCC00"/>
<path d="M41.453 22.4079L43.2821 21.0878H41.0172L40.3167 18.957L39.624 21.0878H37.3591L39.1882 22.4079L38.4877 24.5463L40.3167 23.2262L42.1535 24.5463L41.453 22.4079Z" fill="#FFCC00"/>
<path d="M38.9469 31.6716L40.7759 30.3514H38.5188L37.8183 28.2207L37.1179 30.3514H34.853L36.6898 31.6716L35.9893 33.81L37.8183 32.4899L39.6474 33.81L38.9469 31.6716Z" fill="#FFCC00"/>
<path d="M32.1132 38.4576L33.9422 37.1375H31.6773L30.9769 34.999L30.2842 37.1375H28.0193L29.8483 38.4576L29.1478 40.5883L30.9769 39.2682L32.8137 40.5883L32.1132 38.4576Z" fill="#FFCC00"/>
<path d="M22.7735 40.9357L24.6025 39.6156H22.3376L21.6372 37.4849L20.9445 39.6156H18.6796L20.5086 40.9357L19.8081 43.0742L21.6372 41.754L23.474 43.0742L22.7735 40.9357Z" fill="#FFCC00"/>
<path d="M13.4337 38.4576L15.2627 37.1375H12.9978L12.2973 34.999L11.6046 37.1375H9.33972L11.1688 38.4576L10.4683 40.5883L12.2973 39.2682L14.1341 40.5883L13.4337 38.4576Z" fill="#FFCC00"/>
<path d="M6.5923 31.6716L8.42134 30.3514H6.16422L5.46374 28.2207L4.76326 30.3514H2.50615L4.33519 31.6716L3.6347 33.81L5.46374 32.4899L7.29278 33.81L6.5923 31.6716Z" fill="#FFCC00"/>
<path d="M4.09393 22.4079L5.92297 21.0878H3.65807L2.95759 18.957L2.26489 21.0878H0L1.82904 22.4079L1.12856 24.5463L2.95759 23.2262L4.79441 24.5463L4.09393 22.4079Z" fill="#FFCC00"/>
<path d="M6.5923 13.1437L8.42134 11.8236H6.16422L5.46374 9.69287L4.76326 11.8236H2.50615L4.33519 13.1437L3.6347 15.2822L5.46374 13.9621L7.29278 15.2822L6.5923 13.1437Z" fill="#FFCC00"/>
<path d="M13.4337 6.36541L15.2627 5.04528H12.9978L12.2973 2.91455L11.6046 5.04528H9.33972L11.1688 6.36541L10.4683 8.49615L12.2973 7.17602L14.1341 8.49615L13.4337 6.36541Z" fill="#FFCC00"/>
</g>
<path d="M18.5151 21.1822C18.5154 21.1522 18.5134 21.122 18.5089 21.092V21.0923V21.092V21.0917L18.5086 21.0906C18.508 21.0866 18.5074 21.0827 18.5066 21.079C18.5063 21.0776 18.506 21.0762 18.5057 21.0745L18.5054 21.0736C18.5046 21.0697 18.504 21.0657 18.5032 21.062C18.5023 21.0578 18.5012 21.0533 18.5003 21.049C18.5 21.0473 18.4995 21.0456 18.4992 21.0442L18.4989 21.0434C18.4977 21.0391 18.4966 21.0349 18.4955 21.0304L18.4952 21.0295C18.4949 21.0287 18.4946 21.0275 18.4943 21.0267C18.4781 20.9682 18.4521 20.9133 18.4173 20.863L18.4162 20.8616C18.4142 20.8588 18.4122 20.8559 18.4102 20.8534C18.4088 20.8511 18.407 20.8491 18.4053 20.8469L18.4048 20.8463C18.4042 20.8455 18.4033 20.8443 18.4028 20.8438C18.36 20.7869 18.3072 20.7395 18.2459 20.703L18.2442 20.7018C18.2413 20.7002 18.2382 20.6985 18.2353 20.6968C18.2325 20.6951 18.2296 20.6934 18.2262 20.6917C18.2256 20.6914 18.2248 20.6908 18.2245 20.6905C18.1618 20.6563 18.0942 20.6348 18.0231 20.6264C18.022 20.6264 18.0209 20.6261 18.0197 20.6261L18.018 20.6258C18.0157 20.6255 18.0132 20.6252 18.0112 20.6249C18.0077 20.6247 18.0043 20.6244 18.0006 20.6241H17.9989C17.9424 20.6199 17.8857 20.6241 17.8306 20.6365C17.8301 20.6365 17.8295 20.6368 17.8286 20.6371C17.8249 20.638 17.8215 20.6388 17.8181 20.6397C17.8164 20.6402 17.8147 20.6405 17.8129 20.6411L17.8107 20.6416C17.8089 20.6422 17.8072 20.6425 17.8055 20.643C17.8021 20.6439 17.7984 20.645 17.7947 20.6462H17.795C17.7944 20.6464 17.7938 20.6464 17.793 20.6467C17.7505 20.6594 17.7094 20.6775 17.6712 20.7002L17.0024 21.083L14.3028 22.628L11.7538 21.1692L14.3036 19.7101L16.2206 20.807L17.3358 20.1689L14.5826 18.5933C14.4106 18.4949 14.1969 18.4949 14.025 18.5933L10.373 20.6835C10.201 20.7819 10.0941 20.9653 10.0941 21.1621V21.2028L10.0944 21.2057C10.1046 21.3928 10.2085 21.5605 10.3722 21.6541L11.0595 22.0473L14.0255 23.7448C14.1102 23.7931 14.2066 23.8188 14.3042 23.8188C14.402 23.8188 14.4984 23.7931 14.5831 23.7448L17.3999 22.1327V25.0252L14.6159 26.6183V27.8948L18.2371 25.8225C18.3283 25.7702 18.4025 25.6938 18.4515 25.602C18.4986 25.5135 18.5206 25.4139 18.5151 25.3141V21.1822Z" fill="#FFCC00"/>
<path d="M11.229 25.0489V22.8862L10.0941 22.2539V25.3652C10.0941 25.5602 10.2029 25.742 10.378 25.8395L14.0667 27.895V26.6304L11.229 25.0489Z" fill="#FFCC00"/>
<path d="M21.4034 19.9283V17.7623H21.9436V19.5103H22.8743V19.9283H21.4034Z" fill="#FFCC00"/>
<path d="M23.9257 18.8476C23.9257 19.0406 23.9833 19.1996 24.0985 19.3245C24.2148 19.4483 24.3625 19.5103 24.5415 19.5103C24.7216 19.5103 24.8692 19.4483 24.9845 19.3245C25.1007 19.1996 25.1589 19.0406 25.1589 18.8476C25.1589 18.6535 25.1007 18.4941 24.9845 18.3692C24.8692 18.2443 24.7216 18.1818 24.5415 18.1818C24.3625 18.1818 24.2148 18.2443 24.0985 18.3692C23.9833 18.4941 23.9257 18.6535 23.9257 18.8476ZM23.37 18.8476C23.37 18.6866 23.3983 18.5379 23.4549 18.4017C23.5115 18.2644 23.5959 18.1421 23.708 18.0348C23.8171 17.9315 23.9406 17.8546 24.0785 17.8041C24.2174 17.7535 24.3717 17.7282 24.5415 17.7282C24.7133 17.7282 24.8687 17.754 25.0076 17.8056C25.1465 17.8562 25.2705 17.9326 25.3796 18.0348C25.4907 18.1421 25.5746 18.2644 25.6312 18.4017C25.6888 18.5379 25.7176 18.6866 25.7176 18.8476C25.7176 19.0076 25.6888 19.1562 25.6312 19.2935C25.5746 19.4298 25.4907 19.5505 25.3796 19.6558C25.2695 19.759 25.1445 19.8369 25.0045 19.8896C24.8656 19.9412 24.7113 19.967 24.5415 19.967C24.3727 19.967 24.2189 19.9412 24.08 19.8896C23.9421 19.838 23.8181 19.76 23.708 19.6558C23.5969 19.5505 23.5125 19.4298 23.4549 19.2935C23.3983 19.1562 23.37 19.0076 23.37 18.8476Z" fill="#FFCC00"/>
<path d="M27.0437 18.5674V19.9283H26.5097V17.7623H26.9835L28.1411 19.0535V17.7623H28.6751V19.9283H28.2522L27.0437 18.5674Z" fill="#FFCC00"/>
<path d="M31.5431 19.6744C31.4114 19.7735 31.2715 19.8473 31.1233 19.8958C30.9762 19.9433 30.8146 19.967 30.6387 19.967C30.4689 19.967 30.313 19.9412 30.171 19.8896C30.029 19.8369 29.9061 19.7611 29.8021 19.662C29.6931 19.5577 29.6097 19.4359 29.5521 19.2966C29.4955 19.1573 29.4672 19.0076 29.4672 18.8476C29.4672 18.5101 29.5789 18.2386 29.8021 18.0332C30.0265 17.8278 30.3233 17.7251 30.6927 17.7251C30.8275 17.7251 30.9608 17.7411 31.0925 17.7731C31.2242 17.8051 31.3584 17.8546 31.4953 17.9217V18.397C31.3523 18.3238 31.2159 18.2691 31.0863 18.2329C30.9566 18.1968 30.8352 18.1787 30.722 18.1787C30.5039 18.1787 30.3326 18.2381 30.2081 18.3568C30.0846 18.4755 30.0229 18.6391 30.0229 18.8476C30.0229 19.0509 30.082 19.213 30.2004 19.3338C30.3187 19.4535 30.4777 19.5134 30.6773 19.5134C30.7308 19.5134 30.7838 19.5077 30.8362 19.4963C30.8887 19.485 30.9412 19.4685 30.9937 19.4468V19.1743H30.6958V18.7671H31.5431V19.6744Z" fill="#FFCC00"/>
<path d="M21.3694 23.5615V23.08C21.532 23.1811 21.6688 23.2518 21.78 23.2921C21.8921 23.3323 22.0007 23.3525 22.1056 23.3525C22.2116 23.3525 22.2919 23.3365 22.3464 23.3045C22.4009 23.2714 22.4282 23.2229 22.4282 23.1589C22.4282 23.1073 22.4112 23.066 22.3773 23.0351C22.3433 23.0031 22.2641 22.9654 22.1396 22.922C21.8319 22.8137 21.62 22.7032 21.5037 22.5907C21.3885 22.4772 21.3308 22.3327 21.3308 22.1572C21.3308 21.9724 21.4059 21.8223 21.5562 21.7066C21.7074 21.591 21.904 21.5332 22.1458 21.5332C22.2682 21.5332 22.3912 21.5482 22.5146 21.5781C22.6381 21.6081 22.7601 21.6519 22.8804 21.7097V22.1541C22.7354 22.0808 22.6052 22.0266 22.49 21.9915C22.3747 21.9564 22.2698 21.9389 22.1751 21.9389C22.0722 21.9389 21.9935 21.9539 21.9389 21.9838C21.8854 22.0137 21.8587 22.0566 21.8587 22.1123C21.8587 22.1577 21.8829 22.2005 21.9312 22.2408C21.9796 22.28 22.0526 22.3177 22.1504 22.3538C22.171 22.3621 22.2024 22.374 22.2445 22.3894C22.4503 22.4658 22.598 22.5314 22.6875 22.5861C22.7811 22.6439 22.8516 22.7182 22.899 22.809C22.9473 22.8999 22.9715 23.0062 22.9715 23.128C22.9715 23.3282 22.8959 23.4856 22.7446 23.6002C22.5944 23.7148 22.3855 23.772 22.118 23.772C21.9842 23.772 21.8546 23.7545 21.729 23.7194C21.6045 23.6843 21.4847 23.6317 21.3694 23.5615Z" fill="#FFCC00"/>
<path d="M23.7667 23.7333V21.5673H24.3069V22.4359H25.2684V21.5673H25.8087V23.7333H25.2684V22.8555H24.3069V23.7333H23.7667Z" fill="#FFCC00"/>
<path d="M27.1564 22.6526C27.1564 22.8457 27.214 23.0046 27.3292 23.1295C27.4455 23.2534 27.5932 23.3153 27.7722 23.3153C27.9523 23.3153 28.0999 23.2534 28.2152 23.1295C28.3315 23.0046 28.3896 22.8457 28.3896 22.6526C28.3896 22.4586 28.3315 22.2991 28.2152 22.1742C28.0999 22.0493 27.9523 21.9869 27.7722 21.9869C27.5932 21.9869 27.4455 22.0493 27.3292 22.1742C27.214 22.2991 27.1564 22.4586 27.1564 22.6526ZM26.6007 22.6526C26.6007 22.4916 26.629 22.343 26.6856 22.2067C26.7422 22.0695 26.8266 21.9471 26.9388 21.8398C27.0478 21.7366 27.1713 21.6597 27.3092 21.6091C27.4481 21.5585 27.6024 21.5332 27.7722 21.5332C27.9441 21.5332 28.0994 21.559 28.2383 21.6107C28.3772 21.6612 28.5012 21.7376 28.6103 21.8398C28.7214 21.9471 28.8053 22.0695 28.8619 22.2067C28.9195 22.343 28.9483 22.4916 28.9483 22.6526C28.9483 22.8126 28.9195 22.9613 28.8619 23.0985C28.8053 23.2348 28.7214 23.3556 28.6103 23.4608C28.5002 23.5641 28.3752 23.642 28.2352 23.6946C28.0963 23.7462 27.942 23.772 27.7722 23.772C27.6035 23.772 27.4496 23.7462 27.3107 23.6946C27.1728 23.643 27.0489 23.5651 26.9388 23.4608C26.8276 23.3556 26.7433 23.2348 26.6856 23.0985C26.629 22.9613 26.6007 22.8126 26.6007 22.6526Z" fill="#FFCC00"/>
<path d="M30.5538 22.456C30.6536 22.456 30.7277 22.4354 30.7761 22.3941C30.8254 22.3518 30.8501 22.2878 30.8501 22.2021C30.8501 22.1206 30.8244 22.0586 30.773 22.0163C30.7225 21.973 30.6495 21.9513 30.5538 21.9513H30.2945V22.456H30.5538ZM29.7528 23.7333V21.5673H30.5507C30.844 21.5673 31.0606 21.6184 31.2005 21.7206C31.3404 21.8228 31.4104 21.9812 31.4104 22.1959C31.4104 22.3156 31.3795 22.4183 31.3178 22.504C31.2561 22.5886 31.1614 22.6604 31.0338 22.7192C31.0873 22.7388 31.1352 22.7719 31.1773 22.8183C31.2206 22.8637 31.2581 22.9215 31.29 22.9917L31.6342 23.7333H31.0245L30.7498 23.1094C30.7056 23.0103 30.6552 22.9422 30.5986 22.905C30.542 22.8679 30.4617 22.8493 30.3578 22.8493C30.3496 22.8493 30.3387 22.8498 30.3254 22.8508C30.312 22.8519 30.3017 22.8524 30.2945 22.8524V23.7333H29.7528Z" fill="#FFCC00"/>
<path d="M32.8044 23.7333V21.9699H32.0898V21.5673H34.0886V21.9699H33.374V23.7333H32.8044Z" fill="#FFCC00"/>
<path d="M23.2941 27.3572C23.1644 27.4316 23.0317 27.4868 22.8959 27.5229C22.7601 27.559 22.6175 27.5771 22.4683 27.5771C22.2996 27.5771 22.1442 27.5513 22.0022 27.4997C21.8613 27.4481 21.7378 27.3722 21.6318 27.2721C21.5227 27.1678 21.4394 27.046 21.3818 26.9067C21.3252 26.7673 21.2969 26.6177 21.2969 26.4577C21.2969 26.1212 21.4085 25.8502 21.6318 25.6448C21.8561 25.4384 22.1519 25.3352 22.5193 25.3352C22.651 25.3352 22.7791 25.3496 22.9036 25.3785C23.0291 25.4074 23.1531 25.4518 23.2756 25.5117V26.0195C23.1562 25.9421 23.0363 25.8843 22.9159 25.8461C22.7956 25.8079 22.6752 25.7888 22.5548 25.7888C22.3366 25.7888 22.1648 25.8482 22.0393 25.9669C21.9148 26.0856 21.8525 26.2492 21.8525 26.4577C21.8525 26.66 21.9122 26.8215 22.0316 26.9423C22.1509 27.0631 22.3114 27.1234 22.5131 27.1234C22.6428 27.1234 22.7729 27.1007 22.9036 27.0553C23.0343 27.0089 23.1644 26.9408 23.2941 26.851V27.3572Z" fill="#FFCC00"/>
<path d="M24.0877 27.5384V25.3723H25.4845V25.7718H24.6279V26.2409H25.4321V26.6481H24.6279V27.5384H24.0877Z" fill="#FFCC00"/>
<path d="M26.8276 25.8105V27.1002H27.2305C27.4136 27.1002 27.5628 27.0404 27.6781 26.9206C27.7943 26.7999 27.8525 26.6445 27.8525 26.4546C27.8525 26.2647 27.7943 26.1098 27.6781 25.9901C27.5628 25.8704 27.4136 25.8105 27.2305 25.8105H26.8276ZM26.2874 27.5384V25.3723H27.0977C27.3292 25.3723 27.5088 25.3899 27.6364 25.425C27.764 25.4601 27.8813 25.5179 27.9883 25.5984C28.1262 25.7026 28.2306 25.8275 28.3016 25.9731C28.3726 26.1176 28.4081 26.2781 28.4081 26.4546C28.4081 26.6476 28.3649 26.8231 28.2785 26.981C28.192 27.1379 28.067 27.269 27.9034 27.3743C27.8108 27.4331 27.7084 27.4754 27.5963 27.5012C27.4841 27.526 27.3179 27.5384 27.0977 27.5384H26.2874Z" fill="#FFCC00"/>
<defs>
<clipPath id="clip0">
<rect y="0.428711" width="43.282" height="42.6455" fill="white"/>
</clipPath>
</defs>
</svg>
