<svg width="20" height="21" viewBox="0 0 20 21" fill="none" xmlns="http://www.w3.org/2000/svg">
<path d="M17.8571 0H2.14286C1.57454 0 1.02949 0.22913 0.627628 0.636984C0.225765 1.04484 0 1.59801 0 2.1748L0 18.1233C0 18.7001 0.225765 19.2533 0.627628 19.6611C1.02949 20.069 1.57454 20.2981 2.14286 20.2981H8.27009V13.3972H5.45759V10.1491H8.27009V7.67342C8.27009 4.8575 9.92188 3.30207 12.4518 3.30207C13.6634 3.30207 14.9304 3.52136 14.9304 3.52136V6.28517H13.5344C12.1589 6.28517 11.7299 7.15146 11.7299 8.03996V10.1491H14.8004L14.3094 13.3972H11.7299V20.2981H17.8571C18.4255 20.2981 18.9705 20.069 19.3724 19.6611C19.7742 19.2533 20 18.7001 20 18.1233V2.1748C20 1.59801 19.7742 1.04484 19.3724 0.636984C18.9705 0.22913 18.4255 0 17.8571 0Z" fill="white"/>
</svg>
