<svg width="20" height="21" viewBox="0 0 20 21" fill="none" xmlns="http://www.w3.org/2000/svg">
<path d="M18.5714 0H1.42411C0.638393 0 0 0.656971 0 1.46346V18.8347C0 19.6412 0.638393 20.2981 1.42411 20.2981H18.5714C19.3571 20.2981 20 19.6412 20 18.8347V1.46346C20 0.656971 19.3571 0 18.5714 0ZM6.04464 17.3984H3.08036V7.71147H6.04911V17.3984H6.04464ZM4.5625 6.38847C3.61161 6.38847 2.84375 5.60464 2.84375 4.6441C2.84375 3.68357 3.61161 2.89973 4.5625 2.89973C5.50893 2.89973 6.28125 3.68357 6.28125 4.6441C6.28125 5.60917 5.51339 6.38847 4.5625 6.38847ZM17.1562 17.3984H14.192V12.6863C14.192 11.5627 14.1696 10.1173 12.6518 10.1173C11.1071 10.1173 10.8705 11.3407 10.8705 12.6048V17.3984H7.90625V7.71147H10.75V9.03448H10.7902C11.1875 8.2733 12.1563 7.47134 13.5982 7.47134C16.5982 7.47134 17.1562 9.4785 17.1562 12.0883V17.3984Z" fill="white"/>
</svg>
