<svg width="506" height="153" viewBox="0 0 506 153" fill="none" xmlns="http://www.w3.org/2000/svg">
<path d="M66.8028 153H86.9897V132.299H80.2164C70.9198 132.299 63.6154 132.963 60.2951 126.593C79.5524 122.214 96.5519 106.821 96.5519 76.9644C96.5519 41.0035 71.9823 26.0087 48.3424 26.0087C24.5696 26.0087 0 41.0035 0 76.9644C0 105.362 15.273 120.622 33.335 125.797C33.999 141.455 46.7487 153 66.8028 153ZM48.3424 106.689C34.3974 106.689 26.5617 95.0113 26.5617 76.9644C26.5617 58.9176 34.3974 47.9037 48.3424 47.9037C62.1545 47.9037 69.9902 58.9176 69.9902 76.9644C69.9902 95.0113 62.1545 106.689 48.3424 106.689Z" fill="#FDC602"/>
<path d="M127.941 126.062H154.503V85.059L188.901 27.8664H161.808L141.355 62.6331L121.035 27.8664H93.6768L127.941 85.059V126.062Z" fill="#FDC602"/>
<path d="M219.673 126.062H246.235V49.8942H274.523V27.8664H191.385V49.8942H219.673V126.062Z" fill="#FDC602"/>
<path d="M363.639 127.92C387.279 127.92 411.849 112.925 411.849 76.9644C411.849 41.0035 387.279 26.0087 363.639 26.0087C339.867 26.0087 315.297 41.0035 315.297 76.9644C315.297 112.925 339.867 127.92 363.639 127.92ZM363.639 106.689C349.695 106.689 341.859 95.0113 341.859 76.9644C341.859 58.9176 349.695 47.9037 363.639 47.9037C377.452 47.9037 385.287 58.9176 385.287 76.9644C385.287 95.0113 377.452 106.689 363.639 106.689Z" fill="#FDC602"/>
<path d="M468.814 23.222H490.063V0H468.814V23.222ZM438.666 23.222H459.915V0H438.666V23.222ZM464.829 127.522C493.516 127.522 506 112.66 506 86.6513V27.8664H479.969V86.5186C479.969 100.054 475.72 106.158 465.095 106.158C454.47 106.158 450.088 100.054 450.088 86.5186V27.8664H423.526V86.6513C423.526 112.66 436.143 127.522 464.829 127.522Z" fill="#FDC602"/>
</svg>
