<svg width="270" height="82" viewBox="0 0 270 82" fill="none" xmlns="http://www.w3.org/2000/svg">
<path d="M35.6457 82H46.4174V70.9055H42.8032C37.8426 70.9055 33.945 71.2611 32.1733 67.8474C42.4489 65.5004 51.5198 57.2506 51.5198 41.2489C51.5198 21.9757 38.4095 13.9393 25.7953 13.9393C13.1103 13.9393 0 21.9757 0 41.2489C0 56.4683 8.14962 64.647 17.7874 67.4206C18.1418 75.8127 24.9449 82 35.6457 82ZM25.7953 57.1795C18.3544 57.1795 14.1733 50.9211 14.1733 41.2489C14.1733 31.5768 18.3544 25.6739 25.7953 25.6739C33.1654 25.6739 37.3465 31.5768 37.3465 41.2489C37.3465 50.9211 33.1654 57.1795 25.7953 57.1795Z" fill="white"/>
<path d="M68.2691 67.5629H82.4424V45.5872L100.797 14.935H86.3401L75.4267 33.5681L64.5841 14.935H49.9856L68.2691 45.5872V67.5629Z" fill="white"/>
<path d="M117.217 67.5629H131.39V26.7407H146.484V14.935H102.122V26.7407H117.217V67.5629Z" fill="white"/>
<path d="M194.037 68.5585C206.651 68.5585 219.761 60.5221 219.761 41.2489C219.761 21.9757 206.651 13.9393 194.037 13.9393C181.352 13.9393 168.242 21.9757 168.242 41.2489C168.242 60.5221 181.352 68.5585 194.037 68.5585ZM194.037 57.1795C186.596 57.1795 182.415 50.9211 182.415 41.2489C182.415 31.5768 186.596 25.6739 194.037 25.6739C201.407 25.6739 205.588 31.5768 205.588 41.2489C205.588 50.9211 201.407 57.1795 194.037 57.1795Z" fill="white"/>
<path d="M250.157 12.4458H261.496V0H250.157V12.4458ZM234.071 12.4458H245.409V0H234.071V12.4458ZM248.031 68.3452C263.339 68.3452 270 60.3799 270 46.4406V14.935H256.11V46.3695C256.11 53.6236 253.842 56.8951 248.173 56.8951C242.504 56.8951 240.165 53.6236 240.165 46.3695V14.935H225.992V46.4406C225.992 60.3799 232.724 68.3452 248.031 68.3452Z" fill="white"/>
</svg>
