<svg width="23" height="21" viewBox="0 0 23 21" fill="none" xmlns="http://www.w3.org/2000/svg">
<path d="M22.5194 3.17597C22.2549 1.92584 21.4755 0.941273 20.4859 0.607146C18.6923 0 11.5 0 11.5 0C11.5 0 4.30774 0 2.51405 0.607146C1.52449 0.941325 0.745127 1.92584 0.480607 3.17597C0 5.44191 0 10.1696 0 10.1696C0 10.1696 0 14.8972 0.480607 17.1632C0.745127 18.4133 1.52449 19.3568 2.51405 19.691C4.30774 20.2981 11.5 20.2981 11.5 20.2981C11.5 20.2981 18.6923 20.2981 20.4859 19.691C21.4755 19.3568 22.2549 18.4133 22.5194 17.1632C23 14.8972 23 10.1696 23 10.1696C23 10.1696 23 5.44191 22.5194 3.17597ZM9.14771 14.4619V5.8772L15.159 10.1697L9.14771 14.4619Z" fill="white"/>
</svg>
